# xmcd
#
# Track frame offsets:
#	150
#	16055
#	30385
#	45671
#	59078
#	77620
#	92295
#	109534
#	125136
#	143445
#
# Disc length: 2130 seconds
#
# Revision: 0
# Processed by: cddbd v1.5.2PL0 Copyright (c) Steve Scherf et al.
# Submitted via: audiograbber 1.83.01
#
DISCID=7108500a
DTITLE=Steve Wariner - One Good Night Deserves Another
DYEAR=1985
DGENRE=Country
TTITLE0=Heart Trouble
TTITLE1=What I Didn't Do
TTITLE2=You Can't Cut Me Any Deeper
TTITLE3=Your Love Has Got A Hold On Me
TTITLE4=Some Fools Never Learn
TTITLE5=One Good Night Deserves Another
TTITLE6=As Long As Love's Been Around
TTITLE7=Gamblin' On Romance
TTITLE8=It's Only A Heartache
TTITLE9=I Never Thought I'd See The Night
EXTD=
EXTT0=
EXTT1=
EXTT2=
EXTT3=
EXTT4=
EXTT5=
EXTT6=
EXTT7=
EXTT8=
EXTT9=
PLAYORDER=
